<svg width="48" height="48" viewBox="0 0 48 48" fill="none" xmlns="http://www.w3.org/2000/svg">
<path d="M24.0132 23.5098L24.0621 23.6686C24.2825 22.6728 24.9532 21.8184 25.7718 21.2102C26.5904 20.6023 27.5521 20.217 28.5222 19.9024C29.6192 19.5463 30.7917 19.2435 31.6252 18.4462C31.9699 18.1163 32.24 17.7149 32.466 17.2947C32.9591 16.378 33.2567 15.323 33.1079 14.2929C32.9591 13.2628 32.3059 12.2738 31.3341 11.9011C31.7425 12.956 31.513 14.1859 30.9204 15.1494C30.3279 16.1129 29.4097 16.8378 28.4288 17.4007C27.4095 17.9859 26.2871 18.4301 25.4262 19.2304C24.2785 20.2977 23.7265 21.9686 24.0132 23.5098Z" fill="#776161"/>
<path d="M24.1923 18.4806L24.2351 18.5914C24.3424 17.871 24.777 17.2287 25.3299 16.7541C25.8828 16.2797 26.5487 15.9571 27.2237 15.684C27.9874 15.3752 28.8073 15.1007 29.361 14.4909C29.5906 14.2385 29.7625 13.9389 29.9026 13.628C30.208 12.9502 30.3669 12.1837 30.2089 11.4573C30.0514 10.7308 29.5365 10.0589 28.8252 9.84229C29.1695 10.5733 29.0674 11.4611 28.6938 12.1774C28.3199 12.8936 27.7024 13.4562 27.0313 13.9066C26.3344 14.3747 25.5573 14.7474 24.9843 15.3608C24.2202 16.1789 23.9109 17.3971 24.1923 18.4806Z" fill="#776161"/>
<path d="M23.6143 20.3623L23.5968 20.4186C23.5187 20.0664 23.2818 19.7645 22.9924 19.5493C22.7027 19.3342 22.3628 19.1981 22.0198 19.0868C21.6319 18.9611 21.2173 18.8538 20.9228 18.5723C20.8006 18.4554 20.7055 18.3136 20.6252 18.1648C20.4511 17.841 20.3459 17.4679 20.3983 17.1035C20.4511 16.7393 20.6819 16.3896 21.0253 16.2578C20.8813 16.6308 20.9625 17.0656 21.1719 17.4064C21.3814 17.7472 21.706 18.0033 22.053 18.2023C22.4134 18.4096 22.81 18.5662 23.1146 18.8494C23.5204 19.2269 23.7155 19.8177 23.6143 20.3623Z" fill="#776161"/>
<path d="M19.6171 14.1154C11.9903 18.8648 4.70338 21.0003 3.09961 18.9987C3.12806 19.0568 3.15525 19.1157 3.18959 19.1707C4.8239 21.7954 12.4642 19.9906 20.255 15.1397C28.0459 10.2887 33.0366 4.2284 31.4019 1.60368C31.3679 1.54856 31.3269 1.49825 31.2876 1.44702C32.3763 3.76952 27.2443 9.36624 19.6171 14.1154Z" fill="#776161"/>
<path d="M9.43036 10.6268C8.74701 11.248 8.0676 11.8725 7.43443 12.5405C7.26905 12.7008 7.1172 12.8733 6.96054 13.0415C6.80432 13.2104 6.6468 13.378 6.50105 13.5552L6.05291 14.0785L5.6302 14.622C5.08706 15.3607 4.58354 16.1316 4.20508 16.9848C4.4405 16.0816 4.86927 15.2311 5.38304 14.4476C5.89328 13.6576 6.51501 12.9513 7.15603 12.2711C7.80578 11.5973 8.50571 10.9765 9.23618 10.3965C9.96578 9.8164 10.7307 9.27932 11.5371 8.81289C10.8167 9.40194 10.1207 10.0133 9.43036 10.6268ZM30.9531 0.88303C29.7016 -1.12673 23.5188 0.412673 16.5981 4.29792C16.5806 4.26699 16.5653 4.2353 16.5466 4.2048C15.7781 2.9709 14.1549 2.59344 12.9213 3.36179C11.6872 4.1301 11.3098 5.75324 12.0782 6.98715C12.5015 7.66718 13.1848 8.0853 13.9192 8.19666C13.0919 8.31448 12.2397 8.03285 11.648 7.41496C5.39387 11.8145 1.52075 16.4911 2.74064 18.4502C4.1271 20.6769 11.5668 18.5496 19.3576 13.6985C22.7107 11.6106 25.5802 9.35896 27.6529 7.29326C28.5562 6.12978 31.585 1.87336 27.6333 1.76248C27.6333 1.76248 31.3829 1.3344 29.7278 4.93811C31.0112 3.21496 31.5056 1.76994 30.9531 0.88303Z" fill="#776161"/>
<path d="M37.1861 34.3655C37.043 34.9241 36.9352 35.4896 36.8314 36.0577C36.7227 36.6272 36.6651 37.2015 36.5752 37.7914C36.4596 37.2106 36.409 36.6097 36.4482 36.0154C36.4757 35.4202 36.5665 34.8281 36.7061 34.2495C36.851 33.6722 37.0312 33.104 37.2695 32.5599C37.5055 32.0157 37.7835 31.4864 38.14 31.0095C37.7918 32.1414 37.451 33.2419 37.1861 34.3655ZM17.7527 44.6048C17.106 44.3875 16.4746 44.0812 15.9112 43.6605C14.7767 42.831 13.9432 41.5472 13.6517 40.146C13.6221 39.9702 13.5841 39.7952 13.5631 39.6185L13.5143 39.0905L13.4436 38.1087C13.4013 37.4537 13.3668 36.7983 13.3445 36.1411C13.3048 34.8268 13.2895 33.509 13.3816 32.1759C13.7181 33.4653 13.9476 34.77 14.1518 36.0778C14.2522 36.7319 14.3394 37.3878 14.4193 38.0441L14.5319 39.0289L14.5812 39.4836C14.6008 39.6333 14.6362 39.7804 14.6619 39.9287C14.9133 41.1078 15.5294 42.1948 16.4314 43.0361C16.8808 43.4567 17.3909 43.8303 17.9521 44.1379C18.5133 44.4486 19.1185 44.6873 19.7447 44.9233C19.0775 44.9133 18.4085 44.8007 17.7527 44.6048ZM41.003 21.8004C40.7229 21.7721 40.6779 22.2102 40.938 22.2822C42.2366 22.6418 43.9506 23.5402 43.8773 25.1504C43.811 26.5965 42.1236 26.4687 41.1413 26.9871C40.9105 27.1088 40.6836 27.245 40.4606 27.3924C40.4493 27.3977 40.4379 27.4029 40.4266 27.4081C41.1396 25.9603 41.0894 24.7913 40.9039 24.0355C40.8642 23.7039 40.7403 23.3936 40.5741 23.1388C40.1726 22.5388 39.6276 22.1583 39.083 21.8406C38.5336 21.5247 37.9607 21.2842 37.3808 21.077C36.217 20.6768 35.0283 20.4049 33.8318 20.2112C32.6353 20.0157 31.4301 19.9053 30.2257 19.8464C30.8213 19.9411 31.4139 20.0476 32.003 20.1684C32.593 20.2845 33.1794 20.4124 33.7598 20.5599C34.9201 20.8548 36.0686 21.1961 37.1521 21.6647C37.691 21.8999 38.2203 22.1561 38.6977 22.4703C39.1725 22.7792 39.6119 23.154 39.8554 23.5786C39.9758 23.7898 40.033 24.0049 40.0303 24.2113C40.0238 24.4186 39.9492 24.6237 39.8191 24.8218C39.5582 25.2189 39.1131 25.5628 38.6314 25.8399C38.1466 26.12 37.6168 26.3504 37.0735 26.5494C36.529 26.7484 35.9713 26.9247 35.404 27.0743C34.2682 27.3732 33.1039 27.5897 31.931 27.7507C29.5851 28.0784 27.2043 28.2128 24.8274 28.1757C22.4514 28.1596 20.0737 27.9767 17.7435 27.5757C16.5789 27.3789 15.4255 27.121 14.3146 26.765C13.7599 26.5869 13.2189 26.3775 12.7039 26.1344C12.189 25.894 11.7038 25.6042 11.3128 25.2573C11.1239 25.0815 10.9589 24.8925 10.8507 24.6944C10.7451 24.4963 10.7045 24.2964 10.7194 24.0922C10.7525 23.6838 11.082 23.2505 11.4996 22.9005C12.3509 22.1905 13.4619 21.7123 14.5694 21.3165C16.8093 20.5258 19.1857 20.0838 21.5695 19.7456C19.1591 19.7993 16.7399 20.0698 14.3774 20.7122C13.2045 21.056 12.028 21.4657 10.9698 22.2399C10.7089 22.4371 10.4545 22.6627 10.2411 22.9489C10.0295 23.2313 9.84664 23.5791 9.79384 23.977C9.73929 24.3715 9.81609 24.7865 9.98147 25.1264C10.1477 25.4668 10.3759 25.743 10.6168 25.9865C11.61 26.9251 12.8017 27.3759 13.9519 27.8375C20.8709 30.615 28.5618 30.5177 28.4541 30.5377C27.2122 30.841 20.9892 30.6041 18.467 30.0927C14.9373 29.4652 12.2405 28.4122 11.0663 27.3702C10.6971 27.09 10.3122 26.8404 9.91689 26.6319C9.01536 26.1558 7.57493 26.2623 7.27035 25.1382C6.79864 23.3958 8.74307 22.3079 10.1202 21.927C10.3777 21.8559 10.3384 21.4164 10.0552 21.4452C7.47151 21.7062 5.16629 23.6022 5.66121 26.4359C5.92233 27.9309 7.12984 28.3616 8.29056 29.0711C9.43951 29.7732 10.4462 30.9449 10.8865 32.2256C10.9275 32.3447 10.9768 32.4543 11.0322 32.5551C11.2421 33.9658 11.3887 35.5036 11.3975 37.0269C11.4254 42.0473 13.0866 47.9801 26.2648 47.9801C26.3333 47.9801 26.3997 47.9788 26.4677 47.9783C27.5503 47.9513 32.7474 47.5585 34.7486 42.5548C34.7486 42.5548 34.2014 45.3239 31.746 47.5263C40.4279 45.8921 41.0043 40.1286 40.7028 35.0882C40.6906 34.8809 40.6818 34.6788 40.6753 34.4794C39.1153 35.7087 38.8613 39.2388 38.8613 39.2388C38.7383 35.0532 40.0277 32.48 40.8315 31.2935C40.8319 31.2909 40.8324 31.2879 40.8324 31.2852C40.9096 31.1718 40.9917 31.0614 41.0763 30.9523C41.3006 30.6586 41.4485 30.5142 41.4485 30.5142C41.8439 30.0883 42.2929 29.7165 42.7677 29.4263C43.9245 28.719 45.141 28.2874 45.3972 26.7911C45.882 23.9552 43.5946 22.0623 41.003 21.8004Z" fill="#776161"/>
</svg>
